<?xml version="1.0" encoding="UTF-8"?>
<svg id="Layer_1" xmlns="http://www.w3.org/2000/svg" version="1.1" xmlns:xlink="http://www.w3.org/1999/xlink" viewBox="0 0 113.39 56.69">
  <!-- Generator: Adobe Illustrator 30.2.1, SVG Export Plug-In . SVG Version: 2.1.1 Build 1)  -->
  <defs>
    <style>
      .st0 {
        fill: url(#New_Gradient_Swatch7);
      }

      .st1 {
        fill: url(#New_Gradient_Swatch1);
      }

      .st2 {
        fill: url(#New_Gradient_Swatch9);
      }

      .st3 {
        fill: url(#New_Gradient_Swatch_copy_27);
      }

      .st4 {
        fill: #fff;
      }

      .st5 {
        fill: url(#New_Gradient_Swatch_copy_23);
      }

      .st6 {
        fill: url(#New_Gradient_Swatch3);
      }

      .st7 {
        fill: url(#New_Gradient_Swatch11);
      }

      .st8 {
        fill: #ed1c24;
      }

      .st9 {
        fill: url(#New_Gradient_Swatch_copy_24);
      }

      .st10 {
        fill: url(#New_Gradient_Swatch2);
      }

      .st11 {
        fill: url(#New_Gradient_Swatch10);
      }

      .st12 {
        fill: url(#New_Gradient_Swatch5);
      }

      .st13 {
        fill: url(#New_Gradient_Swatch8);
      }

      .st14 {
        fill: url(#New_Gradient_Swatch13);
      }

      .st15 {
        fill: url(#New_Gradient_Swatch_copy_26);
      }

      .st16 {
        fill: url(#New_Gradient_Swatch_copy_21);
      }

      .st17 {
        fill: url(#New_Gradient_Swatch_copy_25);
      }

      .st18 {
        fill: url(#linear-gradient5);
      }

      .st18, .st19, .st20, .st21, .st22, .st23, .st24 {
        display: none;
      }

      .st19 {
        fill: url(#New_Gradient_Swatch_copy_2);
      }

      .st25 {
        fill: url(#New_Gradient_Swatch14);
      }

      .st26 {
        fill: url(#linear-gradient4);
      }

      .st20 {
        fill: url(#linear-gradient2);
      }

      .st21 {
        fill: url(#linear-gradient1);
      }

      .st27 {
        fill: url(#New_Gradient_Swatch);
      }

      .st28 {
        fill: url(#New_Gradient_Swatch12);
      }

      .st22 {
        fill: url(#New_Gradient_Swatch_copy_22);
      }

      .st29 {
        fill: url(#New_Gradient_Swatch15);
      }

      .st30 {
        fill: url(#New_Gradient_Swatch4);
      }

      .st31 {
        fill: url(#New_Gradient_Swatch6);
      }

      .st23 {
        fill: url(#linear-gradient);
      }

      .st24 {
        fill: url(#linear-gradient3);
      }
    </style>
    <linearGradient id="linear-gradient" x1="97.76" y1="26.85" x2="127.3" y2="35.8" gradientUnits="userSpaceOnUse">
      <stop offset="0" stop-color="#f1f2f2"/>
      <stop offset="1" stop-color="#8b9db7"/>
    </linearGradient>
    <linearGradient id="linear-gradient1" x1="98.33" y1="24.97" x2="127.87" y2="33.92" xlink:href="#linear-gradient"/>
    <linearGradient id="New_Gradient_Swatch_copy_2" data-name="New Gradient Swatch copy 2" x1="134.29" y1="29.4" x2="151.39" y2="29.4" gradientUnits="userSpaceOnUse">
      <stop offset="0" stop-color="#3cc6f3"/>
      <stop offset="1" stop-color="#0f1440"/>
    </linearGradient>
    <linearGradient id="New_Gradient_Swatch_copy_21" data-name="New Gradient Swatch copy 2" x1="69.71" y1="18.56" x2="68.58" y2="32.72" xlink:href="#New_Gradient_Swatch_copy_2"/>
    <linearGradient id="New_Gradient_Swatch_copy_22" data-name="New Gradient Swatch copy 2" x1="84.56" y1="40.58" x2="152.46" y2="40.58" xlink:href="#New_Gradient_Swatch_copy_2"/>
    <linearGradient id="linear-gradient2" x1="99.31" y1="21.73" x2="128.86" y2="30.68" xlink:href="#linear-gradient"/>
    <linearGradient id="New_Gradient_Swatch_copy_23" data-name="New Gradient Swatch copy 2" x1="37.75" y1="34.2" x2="52.24" y2="34.2" xlink:href="#New_Gradient_Swatch_copy_2"/>
    <linearGradient id="linear-gradient3" x1="99.98" y1="19.53" x2="129.52" y2="28.49" xlink:href="#linear-gradient"/>
    <linearGradient id="linear-gradient4" x1="54.76" y1="25.11" x2="61.57" y2="25.11" gradientUnits="userSpaceOnUse">
      <stop offset="0" stop-color="#8b9db7"/>
      <stop offset="1" stop-color="#fff"/>
    </linearGradient>
    <linearGradient id="New_Gradient_Swatch_copy_24" data-name="New Gradient Swatch copy 2" x1="63.49" y1="38.58" x2="78.73" y2="38.58" xlink:href="#New_Gradient_Swatch_copy_2"/>
    <linearGradient id="New_Gradient_Swatch" data-name="New Gradient Swatch" x1="50.91" y1="33.1" x2="65.36" y2="33.1" gradientUnits="userSpaceOnUse">
      <stop offset="0" stop-color="#fff"/>
      <stop offset="1" stop-color="#8b9db7"/>
    </linearGradient>
    <linearGradient id="New_Gradient_Swatch1" data-name="New Gradient Swatch" x1="56.12" y1="12.69" x2="59.85" y2="12.69" xlink:href="#New_Gradient_Swatch"/>
    <linearGradient id="New_Gradient_Swatch_copy_25" data-name="New Gradient Swatch copy 2" x1="50.93" y1="44.06" x2="58.98" y2="44.06" xlink:href="#New_Gradient_Swatch_copy_2"/>
    <linearGradient id="New_Gradient_Swatch_copy_26" data-name="New Gradient Swatch copy 2" x1="50.33" y1="11.9" x2="56.3" y2="11.9" xlink:href="#New_Gradient_Swatch_copy_2"/>
    <linearGradient id="New_Gradient_Swatch_copy_27" data-name="New Gradient Swatch copy 2" x1="59.19" y1="12.43" x2="65.77" y2="12.43" xlink:href="#New_Gradient_Swatch_copy_2"/>
    <linearGradient id="linear-gradient5" x1="103.29" y1="8.61" x2="132.83" y2="17.57" xlink:href="#linear-gradient"/>
    <linearGradient id="New_Gradient_Swatch2" data-name="New Gradient Swatch" x1="35.29" y1="38.15" x2="46.8" y2="38.15" xlink:href="#New_Gradient_Swatch"/>
    <linearGradient id="New_Gradient_Swatch3" data-name="New Gradient Swatch" x1="32.04" y1="27.07" x2="81.57" y2="27.07" xlink:href="#New_Gradient_Swatch"/>
    <linearGradient id="New_Gradient_Swatch4" data-name="New Gradient Swatch" x1="33.29" y1="24.47" x2="54.06" y2="24.47" xlink:href="#New_Gradient_Swatch"/>
    <linearGradient id="New_Gradient_Swatch5" data-name="New Gradient Swatch" x1="57.91" y1="40.01" x2="81.39" y2="40.01" xlink:href="#New_Gradient_Swatch"/>
    <linearGradient id="New_Gradient_Swatch6" data-name="New Gradient Swatch" x1="47.34" y1="13.01" x2="66.59" y2="13.01" xlink:href="#New_Gradient_Swatch"/>
    <linearGradient id="New_Gradient_Swatch7" data-name="New Gradient Swatch" x1="36.16" y1="26.69" x2="57.14" y2="26.69" xlink:href="#New_Gradient_Swatch"/>
    <linearGradient id="New_Gradient_Swatch8" data-name="New Gradient Swatch" x1="47.93" y1="48.39" x2="65.7" y2="48.39" xlink:href="#New_Gradient_Swatch"/>
    <linearGradient id="New_Gradient_Swatch9" data-name="New Gradient Swatch" x1="68.53" y1="32.23" x2="80.81" y2="32.23" xlink:href="#New_Gradient_Swatch"/>
    <linearGradient id="New_Gradient_Swatch10" data-name="New Gradient Swatch" x1="46.53" y1="23.94" x2="54.57" y2="23.94" xlink:href="#New_Gradient_Swatch"/>
    <linearGradient id="New_Gradient_Swatch11" data-name="New Gradient Swatch" x1="47.71" y1="29.27" x2="53.89" y2="29.27" xlink:href="#New_Gradient_Swatch"/>
    <linearGradient id="New_Gradient_Swatch12" data-name="New Gradient Swatch" x1="40.74" y1="21.64" x2="47.18" y2="21.64" xlink:href="#New_Gradient_Swatch"/>
    <linearGradient id="New_Gradient_Swatch13" data-name="New Gradient Swatch" x1="71.7" y1="32.42" x2="77.93" y2="32.42" xlink:href="#New_Gradient_Swatch"/>
    <linearGradient id="New_Gradient_Swatch14" data-name="New Gradient Swatch" x1="48.56" y1="17.59" x2="55.84" y2="17.59" xlink:href="#New_Gradient_Swatch"/>
    <linearGradient id="New_Gradient_Swatch15" data-name="New Gradient Swatch" x1="76.44" y1="30.03" x2="78.39" y2="30.03" xlink:href="#New_Gradient_Swatch"/>
  </defs>
  <rect class="st4" x=".02" y="-.09" width="113.35" height="56.87"/>
  <g>
    <path class="st23" d="M102.97,33.5c.12,1.03.25,2.01.35,3.04h-17.13c.12-.21.18-.4.3-.54,1.38-1.71,2.8-3.43,4.2-5.14,1.75-2.17,3.5-4.32,5.27-6.47,1.35-1.64,2.71-3.29,4.06-4.92.03-.05.07-.09.09-.14h-10.92c.19-.95.37-1.92.56-2.92h17.11c-4.5,5.79-9.06,11.44-13.75,17.1h9.87Z"/>
    <path class="st21" d="M118.89,22.72c-.09.73-.21,1.49-.31,2.24-.28,1.87-.58,3.74-.86,5.63-.23,1.49-.44,2.97-.66,4.48-.05.3-.14.59-.12.87.02.44-.17.49-.54.47-1.05-.02-2.12,0-3.25,0,.09-.68.17-1.31.26-1.99-.38.33-.75.66-1.14.94-1.66,1.26-3.52,1.59-5.51,1.01-1.5-.44-2.54-1.85-2.62-3.41-.07-1.38.21-2.73.4-4.08.28-1.85.58-3.71.86-5.58.03-.19.07-.37.1-.56.07-.35.26-.51.63-.49.96.02,1.92.02,2.9,0,.4-.02.54.12.47.51-.16,1.05-.33,2.08-.49,3.13-.32,2.05-.63,4.09-.91,6.16-.14.93.4,1.56,1.31,1.75,1.64.31,2.9-.42,3.95-1.56.23-.24.26-.72.31-1.08.44-2.82.86-5.63,1.28-8.45.05-.32.21-.44.49-.45h3.13c.35,0,.35.23.31.45Z"/>
    <path class="st19" d="M145.28,28.9c1.64,2.55,3.29,5.07,4.97,7.66-1.47,0-2.85.02-4.22-.02-.16,0-.37-.26-.47-.44-.93-1.4-1.84-2.82-2.75-4.23-.05-.09-.12-.19-.23-.35-.16.19-.32.37-.47.54-1.29,1.42-2.59,2.83-3.88,4.25-.1.1-.28.23-.44.25-1.12.02-2.26,0-3.5,0,.26-.31.47-.58.68-.8,1.85-2.05,3.71-4.09,5.56-6.12.52-.58.54-.58.14-1.24-1.12-1.89-2.24-3.78-3.34-5.67-.07-.12-.14-.26-.25-.45h1.66c.44,0,.89.05,1.33-.02.87-.12,1.35.25,1.75,1,.56,1.07,1.24,2.08,1.91,3.15,1.05-1.12,2.1-2.15,3.06-3.27.52-.61,1.05-.96,1.91-.87.72.09,1.45.02,2.19.02.14,0,.28.02.49.03-2.06,2.24-4.08,4.41-6.11,6.6Z"/>
    <path class="st16" d="M76.16,24.7c-.91.98-1.78,1.99-2.75,2.9-1.22,1.17-2.52,2.26-3.81,3.36-.09.09-.26.1-.39.09-.75-.12-1.5-.26-2.27-.28.66.19,1.35.4,2.13.65-.77.51-1.47,1-2.17,1.43-.11.07-.33.04-.45-.04-1.26-.56-2.52-1.14-3.76-1.71-.28-.12-.37-.28-.35-.61.05-.82,0-1.64.04-2.45.02-.21.1-.47.26-.61.52-.51,1.1-.98,1.68-1.49.28.33.52.61.82.98.49-.7.98-1.36,1.43-2.05.23-.35.38-.77.63-1.12.38-.54.56-.54.96,0,.23.31.42.63.7,1.05.35-.66.68-1.26.98-1.87.03-.07-.07-.23-.12-.33-.07-.14-.18-.26-.28-.4.09-.1.16-.17.26-.3,1.33.93,1.94,2.4,2.89,3.73.38-.61.72-1.17,1.1-1.78-.37-.24-.7-.47-1.03-.68.98-.02,1.61.72,2.45,1.05-.37-.52-.7-1.07-1.08-1.57-.1-.14-.3-.26-.47-.31-1.78-.51-3.2-1.64-4.71-2.64-.18-.12-.39-.28-.58-.3-.23-.04-.56,0-.68.14-1.22,1.45-2.75,2.54-4.29,3.6-.24.17-.42.42-.61.63.04.05.07.09.1.14.31-.19.61-.37,1.05-.61-.09.23-.14.35-.23.58.59-.37,1.12-.68,1.66-1.01.33.58.65,1.14.95,1.71.05.09.05.25,0,.31-.37.52-.74,1.05-1.12,1.57-.23-.37-.42-.68-.61-1.01-.68.59-1.35,1.17-2.08,1.82-.02-.25-.04-.38-.04-.52-.02-1.03-.02-2.08,0-3.13,0-.16.07-.37.17-.45,1.35-.95,2.47-2.13,3.62-3.31.04-.04.07-.09.12-.12,1.21-1.22,1.82-1.26,3.24-.28,1,.68,2.01,1.29,3.04,1.91.35.21.77.26,1.12.44.28.12.54.31.74.54.56.68,1.07,1.42,1.59,2.13.04.05.07.12.14.24Z"/>
    <path class="st22" d="M152.46,39.94c-.17,0-.37.02-.56,0-3.39-.05-6.79-.12-10.18-.16-3.38-.04-6.74-.07-10.11-.05-3.32.04-6.67.1-10.01.17-2.64.07-5.3.14-7.94.25-2.66.12-5.32.28-7.98.44-2.01.1-4.01.23-6.02.37-1.99.16-3.99.33-6,.52-1.92.16-3.83.35-5.76.54-.87.09-1.73.23-2.61.33-.21.02-.42.02-.72.04.17-.75.35-1.45.52-2.15.04-.07.18-.16.26-.17,1.14-.1,2.29-.19,3.43-.26,1.66-.12,3.32-.24,4.99-.33,1.31-.09,2.64-.16,3.97-.21,2.87-.12,5.74-.24,8.61-.33,2.57-.09,5.14-.14,7.73-.14,5.32-.02,10.64,0,15.96.02,2.15,0,4.32.03,6.47.1,2.96.09,5.93.21,8.89.37,2.2.12,4.41.35,6.61.52.16.02.3.04.44.14Z"/>
    <path class="st20" d="M130.6,22.61c-.16.91-.31,1.82-.47,2.75-1.96-.37-3.81-.03-5.58.84-.45.23-.66.52-.73,1.03-.37,2.75-.75,5.49-1.15,8.24q-.14.98-1.12.98h-2.92c.07-.63.12-1.21.21-1.78.26-1.7.52-3.39.79-5.09.28-1.92.58-3.83.87-5.76.07-.4.1-.82.21-1.22.02-.12.21-.31.33-.31,1.12-.02,2.24-.02,3.43-.02-.1.72-.21,1.35-.31,2.05.44-.35.8-.68,1.21-.98,1.07-.75,2.26-1.17,3.59-1.07.45.03.89,0,1.35,0,.26,0,.35.12.31.35Z"/>
    <path class="st5" d="M52.24,38.78c-.96.26-1.85.54-2.75.72-1.38.28-2.78.54-4.16.68-1.75.19-3.32-.39-4.69-1.45-1.59-1.22-2.59-2.82-2.83-4.81-.18-1.42.07-2.78.7-4.08.26-.54.56-1.07.87-1.66,1.82,2.26,3.74,4.25,6.11,5.81-.02.03-.03.09-.07.12-.75-.38-1.54-.72-2.26-1.14-.74-.44-1.42-.98-2.06-1.43.33.63,1.31,1.5,2.59,2.15,1.03.52,2.1.93,3.15,1.45-.61-.07-1.24-.12-1.85-.23-.61-.09-1.22-.23-1.82-.37-.61-.16-1.24-.31-1.84-.54-.56-.23-1.08-.56-1.52-.79.66,1.01,1.92,1.94,4.71,3.43-.75,0-1.45.04-2.15,0-.7-.05-1.38-.19-2.06-.25.65.37,1.35.45,2.06.53,1.87.16,3.71-.21,5.53-.54.16-.04.35-.02.49.05,1.22.72,2.45,1.45,3.67,2.19.05.02.09.07.19.16Z"/>
    <path class="st8" d="M45.92,9.28c-2.13-.51-4.23-.26-6.32.39-.26.07-.38.23-.4.49-.09,1.24-.26,2.5-.25,3.73.04,2.73,1.49,4.57,4.06,5.46.56.19,1.12.21,1.68-.07.68-.31,1.4-.58,2.08-.89.12-.05.26-.21.28-.33.09-.42.14-.86.19-1.28.28-2.29.72-4.57,1.42-6.81-.93-.23-1.84-.47-2.75-.68ZM46.73,14.21c-.04.23-.14.28-.37.23-.56-.1-1.14-.21-1.78-.31-.09.72-.18,1.42-.28,2.15-.51-.07-1-.12-1.52-.19.07-.72.16-1.38.23-2.1-.54-.03-1.07-.1-1.59-.12-.37-.02-.6-.11-.51-.54.07-.42.07-.86.1-1.38.74.07,1.45.14,2.2.21.05-.52.12-1.03.18-1.54.02-.3.16-.35.42-.3.38.07.79.12,1.22.17-.05.61-.11,1.21-.18,1.85.7.1,1.4.19,2.15.28-.09.58-.19,1.08-.28,1.59Z"/>
    <path class="st24" d="M135.71,22.75c-.17,1.03-.31,2.05-.49,3.08-.25,1.64-.51,3.31-.77,4.95-.3,1.85-.6,3.69-.91,5.53,0,.1-.14.25-.23.25-1.22,0-2.45,0-3.66-.02-.04,0-.05-.04-.1-.07.21-1.35.44-2.73.65-4.09.26-1.66.51-3.31.77-4.97.25-1.54.49-3.1.73-4.65.05-.33.23-.51.6-.49,1,.02,1.98.02,2.96,0,.38-.02.51.12.45.49Z"/>
    <path class="st26" d="M61.3,21.37c-.91-.56-1.84-1.08-2.75-1.63-.25-.16-.4-.12-.6,0-.94.61-1.87,1.21-2.83,1.78-.26.18-.37.37-.37.68.02,2.2.02,4.39.02,6.58v.51c.6-.4,1.12-.75,1.63-1.14.23-.18.38-.19.63-.04.52.35,1.07.65,1.59.98.3.18.61.33.96.52v-1.59c.32.05.61.09.91.12,0,.28.02.49-.02.72-.09.74,0,1.36.86,1.59.05.02.1.05.18.1.03-.07.05-.1.05-.14,0-2.89.02-5.77,0-8.66,0-.14-.14-.33-.26-.4ZM56.39,25.73c0-.7-.04-1.42.02-2.12.02-.17.3-.33.47-.49.14.16.39.31.4.47.03.72.02,1.45.02,2.2-.31-.02-.59-.05-.91-.07ZM60.22,25.82h-.65c0-.79-.02-1.54.02-2.27,0-.14.26-.26.4-.38.07.14.21.28.23.42.02.73,0,1.45,0,2.24Z"/>
    <path class="st9" d="M78.73,36.7c-.05.66-.38,1.31-.89,1.87-.93,1.01-2.13,1.54-3.45,1.82-1.91.42-3.83.37-5.76.14-1.66-.21-3.29-.51-4.88-1.01-.05-.02-.12-.05-.26-.09.14-.1.23-.18.31-.23,1.28-.87,2.55-1.73,3.83-2.61.23-.16.42-.18.68-.07,2.31.8,4.69,1.05,7.1.82,1.12-.1,2.2-.42,3.31-.65Z"/>
    <path class="st27" d="M65.36,33.41c-1.75.84-3.41,1.66-5.06,2.43-.79.37-1.57.7-2.38,1-.19.07-.47.04-.65-.07-.7-.42-1.36-.89-2.01-1.31,1.33-.87,2.68-1.75,4.01-2.61-.03-.05-.05-.1-.09-.14-.7.4-1.42.84-2.13,1.22-.65.37-1.3.72-1.98,1.01-.23.1-.53.07-.8.1,0-.05-.02-.1-.04-.16,1.84-1.01,3.67-2.01,5.6-3.08-1.01-.54-1.92-1.07-2.87-1.56-.14-.07-.4-.07-.56,0-1.51.7-2.99,1.43-4.5,2.13-.28.14-.61.19-.93.28-.02-.04-.05-.09-.07-.14.09-.07.17-.16.28-.21,1.75-1,3.5-1.99,5.28-2.96.17-.1.51,0,.72.1,1.51.73,2.99,1.49,4.5,2.22,1.17.58,2.36,1.1,3.67,1.71Z"/>
    <path class="st1" d="M59.85,20.09c-.45-.28-.87-.53-1.28-.79-.25-.18-.42-.18-.68-.04-.54.31-1.1.58-1.77.93.54-5.06,1.08-10.03,1.64-15.01h.1c.66,4.95,1.31,9.9,1.98,14.91Z"/>
    <path class="st17" d="M58.98,43.09c-.87.66-1.68,1.35-2.57,1.92-.75.49-1.59.84-2.4,1.26-.33.18-.63.14-.89-.17-.72-.82-1.43-1.66-2.19-2.54,1.68-.58,3.27-1.03,4.79-1.64.68-.28,1.15-.21,1.68.19.25.18.51.31.77.47.23.14.47.3.8.51Z"/>
    <path class="st15" d="M56.3,10.42c-.16,1.14-.31,2.26-.45,3.38-1.84-.59-3.64-1.19-5.51-1.8.26-.63.47-1.22.73-1.78.07-.12.33-.19.51-.19,1.28.09,2.57.21,3.87.31.26.02.53.05.86.09Z"/>
    <path class="st3" d="M65.77,12.78c-2.03.37-4.04.72-6.12,1.1-.14-.89-.3-1.85-.45-2.9,1.29.17,2.48.33,3.69.52.63.1,1.24.25,1.8-.21.25-.19.44-.09.54.19.19.44.37.87.54,1.29Z"/>
    <path class="st18" d="M137.06,16.4c-.09.53-.16.96-.23,1.42,0,.04-.04.09-.04.12.09.96-.47,1.22-1.29,1.38-.84.17-1.68.47-2.57.72.07-.49.12-.93.19-1.38.05-.26.16-.53.16-.77-.02-.4.19-.54.54-.63,1.05-.26,2.1-.56,3.24-.86Z"/>
    <path class="st10" d="M46.8,41.15c-.49.07-1,.14-1.5.19-2.1.26-4.15.12-6.16-.58-1.38-.47-2.55-1.26-3.27-2.57-.58-1.05-.7-2.17-.45-3.34.19.59.31,1.19.56,1.73,1.07,2.34,3.03,3.53,5.44,4.09,1.56.37,3.13.49,4.74.39.21,0,.42,0,.65.09Z"/>
    <g>
      <path class="st6" d="M81.48,15.81c-.33-1.73-1.49-2.75-3.11-3.27-2.13-.7-4.36-.75-6.58-.72-.18.02-.35.04-.52.05v-.1c.26-.05.52-.09.94-.16-.44-.45-.73-.87-1.14-1.15-1.47-1.03-3.04-1.05-4.67-.42-.31.12-.37.28-.26.58.21.66.38,1.36.59,2.05.07.26.04.38-.26.4-.63.05-1.24.07-1.86.17-1.54.28-3.06.6-4.58.91-.09.02-.23.14-.23.19.07.51.16,1,.25,1.54.51-.17.91-.37,1.35-.47,1.66-.45,3.32-.91,5.02-1.33.47-.12.93-.09,1.38.3,1,.86,2.85.47,3.04-1.24,0-.09.02-.17.03-.33.21.4-.05,1.26-.42,1.61-.84.75-1.99.8-2.83.05-.28-.25-.51-.33-.86-.26-.54.11-1.08.19-1.71.3.49.7,1,1.19,1.66,1.5.89.4,1.84.44,2.8.37,1.03-.07,1.87-.51,2.52-1.31.47-.6.68-1.26.68-2.01h-1.5c0-.05,0-.1-.02-.17.49,0,.98,0,1.47-.02,1.4-.05,2.78.1,4.15.44,1.98.49,2.99,1.77,3.01,3.8,0,1.19-.31,2.31-.77,3.39-.82,1.91-2.03,3.55-3.34,5.14-2.05,2.5-4.36,4.71-7.02,6.56-3.2,2.24-6.65,4.02-10.24,5.53-2.75,1.17-5.55,2.2-8.43,2.94-.65.17-1.33.3-1.98.47-.6.16-.68.39-.37.89l.31.63c-.1.05-.17.07-.24.1-.07.02-.14.04-.21.07-2.73.68-5.48.86-8.24.26-1.56-.33-2.97-.96-4.18-1.99-1.36-1.17-2.15-2.68-2.41-4.44-.17-1.1-.12-1.71.18-2.38-.09,1.14.12,2.13.7,3.04.58.91,1.4,1.54,2.41,2.06-.14-.25-.26-.4-.35-.58-.79-1.57-.77-3.22-.4-4.86.4-1.84,1.4-3.39,2.45-4.9.31-.47.65-.91.98-1.38-.23-.23-.44-.44-.66-.65s-.45-.4-.7-.59c-2.13,2.47-3.95,5.18-4.93,8.38-.54,1.8-.42,3.57.49,5.25,1.03,1.89,2.64,3.06,4.64,3.74,2.87.98,5.81.89,8.77.37.02,0,.04-.04.04-.04-.04-.09-.07-.18-.12-.26.54-.1,1.03-.16,1.52-.28,2.06-.58,4.16-1.07,6.19-1.77,3.6-1.24,7.14-2.68,10.41-4.64,5.11-3.04,9.47-6.98,13.21-11.6,1.5-1.87,2.82-3.9,3.59-6.21.38-1.15.61-2.33.38-3.55ZM68.6,13.69c-.52,0-.94-.44-.96-.96,0-.58.47-1.1,1.01-1.1.51,0,.96.52.96,1.08-.02.52-.47.98-1.01.98ZM67.24,11.59c.51-.72,1.42-1,2.31-.7.86.28,1.31.82,1.31,1.68-.56-1.56-1.82-2.19-3.62-.98Z"/>
      <path class="st30" d="M54.06,38.29c-.49.25-.87.26-1.36-.05-2.22-1.45-4.41-2.94-6.44-4.64-2.94-2.45-5.79-5.02-8.21-8-1.61-1.99-3.11-4.08-4.04-6.53-.51-1.31-.84-2.66-.66-4.08.21-1.75,1.28-2.96,2.8-3.71.72-.37,1.52-.56,2.29-.8.12-.05.26-.02.38-.02,0,.07.02.1.02.12.02.77-.25,1.17-1.08,1.42-1.63.51-2.08,2.17-1.91,3.53.37,2.78,1.7,5.2,3.15,7.52,2.1,3.38,4.64,6.39,7.45,9.15,2.22,2.17,4.69,4.02,7.24,5.79.12.09.23.17.37.28Z"/>
      <path class="st12" d="M80.78,41.04c-.7,1.36-1.91,2.22-3.32,2.76-2.12.82-4.36.96-6.61.84-4.37-.25-8.47-1.52-12.41-3.36-.07-.05-.16-.1-.23-.14-.09-.04-.16-.05-.3-.12.61-.28,1.15-.52,1.71-.79.07-.03.14-.03.19-.09.86-.63,1.66-.44,2.55-.03,2.03.93,4.13,1.59,6.32,1.96,2.61.42,5.21.52,7.73-.42,1.43-.54,2.47-1.52,2.69-3.1.1-.61-.02-1.28-.02-1.91,0-.12.02-.3.09-.37.31-.32.65-.61,1.01-.95,1.28,1.8,1.61,3.71.58,5.7Z"/>
      <path class="st31" d="M66.59,12.78c-.38.1-.59.1-.75-.35-1.01-2.71-2.24-5.28-4.34-7.38-2.29-2.27-5.09-1.96-7.28.04-2.01,1.84-3.24,4.16-4.08,6.7-.63,1.94-1.12,3.95-1.56,5.97-.31,1.42-.47,2.87-.7,4.3-.1.63-.23,1.26-.33,1.89-.07-.02-.14-.02-.21-.03.09-1.96.16-3.92.28-5.88.12-2.29.56-4.55,1.26-6.75.72-2.24,1.64-4.39,3.17-6.23,1.24-1.49,2.68-2.66,4.69-2.92,1.73-.23,3.25.25,4.58,1.35,1.87,1.56,3.01,3.64,3.97,5.79.45,1.01.8,2.08,1.21,3.11.04.12.05.25.09.4Z"/>
      <path class="st0" d="M57.14,37.17c-.75.28-1.43.54-2.12.77-.16.05-.4-.03-.58-.12-2.01-1.12-3.88-2.45-5.67-3.9-2.26-1.82-4.18-3.94-6.04-6.14-1.52-1.82-2.9-3.74-4.11-5.81-1.1-1.92-2.03-3.94-2.43-6.16-.02-.1-.02-.21-.03-.39.33.75.58,1.45.91,2.1,1.24,2.36,2.75,4.55,4.39,6.63,2.33,2.97,4.92,5.67,7.93,7.96,2.36,1.8,4.85,3.46,7.47,4.88.07.04.12.09.28.17Z"/>
      <path class="st13" d="M65.7,44.59c-.25.59-.47,1.15-.72,1.71-.68,1.49-1.54,2.85-2.64,4.06-1.21,1.33-2.66,2.27-4.48,2.52-1.66.24-3.18-.21-4.53-1.19-2.55-1.89-4.16-4.48-5.39-7.42.66-.16,1.29-.3,1.94-.45.56,1.47,1.26,2.85,2.26,4.06.94,1.14,2.01,2.12,3.41,2.64,1.98.75,3.76.4,5.37-.84,1.64-1.28,2.64-3.03,3.41-4.93.05-.12.1-.26.17-.4.39.07.74.16,1.19.25Z"/>
      <path class="st2" d="M80.76,33.53c-.25,1.43-1.22,2.22-2.52,2.68-1.22.42-2.5.54-3.78.54-1.94.02-3.87-.07-5.72-.72-.05-.02-.12-.05-.21-.09.56-.47,1.07-.72,1.85-.6,2.12.31,4.27.39,6.35-.23,1.5-.44,2.55-1.35,2.76-2.97.12-1-.12-1.94-.56-2.85-.24-.54-.54-1.07-.82-1.59,1.08.87,1.84,1.96,2.31,3.25.31.84.47,1.7.33,2.57Z"/>
      <path class="st11" d="M54.57,27.44c-.87-.26-1.64-.45-2.36-.73-.65-.26-1.22-.17-1.84.05-1.01.38-2.06.72-3.1,1.07-.21.07-.45.1-.73.07.16-.19.3-.38.45-.58.93-1.07,1.87-2.12,2.8-3.17.89-1.01,1.12-2.27,1.31-3.53.04-.21.09-.42.21-.65.4,2.75,2.06,4.93,3.25,7.47Z"/>
      <path class="st7" d="M53.57,27.5c-.65-.19-1.29-.42-1.94-.63-.14-.04-.33-.07-.47-.02-1.03.35-2.06.73-3.08,1.1-.1.03-.26.14-.26.21-.04.86-.4,1.82.54,2.45.51.35,1.03.63,1.54.95.66.44,1.14-.14,1.68-.31t.03-.04c.4-.07.53-.35.53-.7.02-.49,0-.96.05-1.43.02-.14.19-.33.31-.35.26-.07.3.14.3.37v1.56c.26-.14.42-.23.6-.3.39-.16.52-.42.49-.84-.04-.51-.02-1.03,0-1.56,0-.25-.05-.37-.32-.45ZM50.21,30.73c-.66-.02-.8-.16-.8-.72v-.84c0-.28.14-.51.4-.47.16.04.37.28.38.44.05.52.02,1.03.02,1.59Z"/>
      <path class="st28" d="M47.18,19.15c-.05.49-.07.87-.14,1.28-.04.14-.14.33-.28.42-1.61,1.08-3.22,2.15-4.9,3.29-.33-.42-.72-.89-1.12-1.4,2.13-1.26,4.13-2.62,6.44-3.59Z"/>
      <path class="st14" d="M77.33,33.13c-.56.39-1.15.77-1.77.98-1.26.4-2.57.42-3.87.35,1.96-1.08,3.71-2.41,5.21-4.11.52.44.86.98,1,1.61.1.49-.21.91-.58,1.17Z"/>
      <path class="st25" d="M55.84,15.47c-.04.45-.04.87-.12,1.28-.02.12-.25.26-.4.31-1.38.52-2.78,1-4.16,1.54-.84.31-1.64.73-2.47,1.1-.28-.8-.12-1.35.6-1.64,2.08-.87,4.2-1.71,6.28-2.57.07-.02.16-.02.28-.02Z"/>
      <path class="st29" d="M78.35,31.61s-.02.09-.04.09c-.4-.59-.84-1.22-1.26-1.85-.23-.37-.44-.75-.61-1.14,0-.07.28-.23.44-.33,0,0,.05.04.07.05.51.35,1.66,2.26,1.4,3.18Z"/>
    </g>
  </g>
</svg>