<?xml version="1.0" encoding="UTF-8"?>
<svg id="Layer_1" xmlns="http://www.w3.org/2000/svg" version="1.1" xmlns:xlink="http://www.w3.org/1999/xlink" viewBox="0 0 113.39 56.69">
  <!-- Generator: Adobe Illustrator 30.2.1, SVG Export Plug-In . SVG Version: 2.1.1 Build 1)  -->
  <defs>
    <style>
      .st0 {
        fill: url(#New_Gradient_Swatch7);
      }

      .st1 {
        fill: url(#New_Gradient_Swatch1);
      }

      .st2 {
        fill: url(#New_Gradient_Swatch9);
      }

      .st3 {
        fill: url(#New_Gradient_Swatch_copy_27);
      }

      .st4 {
        fill: #fff;
      }

      .st5 {
        fill: url(#New_Gradient_Swatch_copy_23);
      }

      .st6 {
        fill: url(#New_Gradient_Swatch3);
      }

      .st7 {
        fill: url(#New_Gradient_Swatch11);
      }

      .st8 {
        fill: #ed1c24;
      }

      .st9 {
        fill: url(#New_Gradient_Swatch_copy_24);
      }

      .st10 {
        fill: url(#New_Gradient_Swatch2);
      }

      .st11 {
        fill: url(#New_Gradient_Swatch10);
      }

      .st12 {
        fill: url(#New_Gradient_Swatch5);
      }

      .st13 {
        fill: url(#New_Gradient_Swatch8);
      }

      .st14 {
        fill: url(#New_Gradient_Swatch13);
      }

      .st15 {
        fill: url(#New_Gradient_Swatch_copy_26);
      }

      .st16 {
        fill: url(#New_Gradient_Swatch_copy_21);
      }

      .st17 {
        fill: url(#New_Gradient_Swatch_copy_25);
      }

      .st18 {
        fill: url(#linear-gradient5);
      }

      .st18, .st19, .st20, .st21, .st22, .st23, .st24 {
        display: none;
      }

      .st19 {
        fill: url(#New_Gradient_Swatch_copy_2);
      }

      .st25 {
        fill: url(#New_Gradient_Swatch14);
      }

      .st26 {
        fill: url(#linear-gradient4);
      }

      .st20 {
        fill: url(#linear-gradient2);
      }

      .st21 {
        fill: url(#linear-gradient1);
      }

      .st27 {
        fill: url(#New_Gradient_Swatch);
      }

      .st28 {
        fill: url(#New_Gradient_Swatch12);
      }

      .st22 {
        fill: url(#New_Gradient_Swatch_copy_22);
      }

      .st29 {
        fill: url(#New_Gradient_Swatch15);
      }

      .st30 {
        fill: url(#New_Gradient_Swatch4);
      }

      .st31 {
        fill: url(#New_Gradient_Swatch6);
      }

      .st23 {
        fill: url(#linear-gradient);
      }

      .st24 {
        fill: url(#linear-gradient3);
      }
    </style>
    <linearGradient id="linear-gradient" x1="77.84" y1="26.56" x2="94.73" y2="31.67" gradientUnits="userSpaceOnUse">
      <stop offset="0" stop-color="#f1f2f2"/>
      <stop offset="1" stop-color="#8b9db7"/>
    </linearGradient>
    <linearGradient id="linear-gradient1" x1="78.17" y1="25.48" x2="95.05" y2="30.6" xlink:href="#linear-gradient"/>
    <linearGradient id="New_Gradient_Swatch_copy_2" data-name="New Gradient Swatch copy 2" x1="98.72" y1="28.01" x2="108.49" y2="28.01" gradientUnits="userSpaceOnUse">
      <stop offset="0" stop-color="#3cc6f3"/>
      <stop offset="1" stop-color="#0f1440"/>
    </linearGradient>
    <linearGradient id="New_Gradient_Swatch_copy_21" data-name="New Gradient Swatch copy 2" x1="61.82" y1="21.82" x2="61.17" y2="29.91" xlink:href="#New_Gradient_Swatch_copy_2"/>
    <linearGradient id="New_Gradient_Swatch_copy_22" data-name="New Gradient Swatch copy 2" x1="70.3" y1="34.4" x2="109.1" y2="34.4" xlink:href="#New_Gradient_Swatch_copy_2"/>
    <linearGradient id="linear-gradient2" x1="78.73" y1="23.63" x2="95.61" y2="28.75" xlink:href="#linear-gradient"/>
    <linearGradient id="New_Gradient_Swatch_copy_23" data-name="New Gradient Swatch copy 2" x1="43.55" y1="30.76" x2="51.83" y2="30.76" xlink:href="#New_Gradient_Swatch_copy_2"/>
    <linearGradient id="linear-gradient3" x1="79.11" y1="22.38" x2="95.99" y2="27.49" xlink:href="#linear-gradient"/>
    <linearGradient id="linear-gradient4" x1="53.27" y1="25.56" x2="57.16" y2="25.56" gradientUnits="userSpaceOnUse">
      <stop offset="0" stop-color="#8b9db7"/>
      <stop offset="1" stop-color="#fff"/>
    </linearGradient>
    <linearGradient id="New_Gradient_Swatch_copy_24" data-name="New Gradient Swatch copy 2" x1="58.26" y1="33.26" x2="66.97" y2="33.26" xlink:href="#New_Gradient_Swatch_copy_2"/>
    <linearGradient id="New_Gradient_Swatch" data-name="New Gradient Swatch" x1="51.07" y1="30.13" x2="59.33" y2="30.13" gradientUnits="userSpaceOnUse">
      <stop offset="0" stop-color="#fff"/>
      <stop offset="1" stop-color="#8b9db7"/>
    </linearGradient>
    <linearGradient id="New_Gradient_Swatch1" data-name="New Gradient Swatch" x1="54.05" y1="18.47" x2="56.18" y2="18.47" xlink:href="#New_Gradient_Swatch"/>
    <linearGradient id="New_Gradient_Swatch_copy_25" data-name="New Gradient Swatch copy 2" x1="51.08" y1="36.39" x2="55.68" y2="36.39" xlink:href="#New_Gradient_Swatch_copy_2"/>
    <linearGradient id="New_Gradient_Swatch_copy_26" data-name="New Gradient Swatch copy 2" x1="50.74" y1="18.02" x2="54.15" y2="18.02" xlink:href="#New_Gradient_Swatch_copy_2"/>
    <linearGradient id="New_Gradient_Swatch_copy_27" data-name="New Gradient Swatch copy 2" x1="55.8" y1="18.32" x2="59.56" y2="18.32" xlink:href="#New_Gradient_Swatch_copy_2"/>
    <linearGradient id="linear-gradient5" x1="81" y1="16.13" x2="97.89" y2="21.25" xlink:href="#linear-gradient"/>
    <linearGradient id="New_Gradient_Swatch2" data-name="New Gradient Swatch" x1="42.14" y1="33.02" x2="48.72" y2="33.02" xlink:href="#New_Gradient_Swatch"/>
    <linearGradient id="New_Gradient_Swatch3" data-name="New Gradient Swatch" x1="40.29" y1="26.69" x2="68.59" y2="26.69" xlink:href="#New_Gradient_Swatch"/>
    <linearGradient id="New_Gradient_Swatch4" data-name="New Gradient Swatch" x1="41" y1="25.2" x2="52.87" y2="25.2" xlink:href="#New_Gradient_Swatch"/>
    <linearGradient id="New_Gradient_Swatch5" data-name="New Gradient Swatch" x1="55.07" y1="34.08" x2="68.49" y2="34.08" xlink:href="#New_Gradient_Swatch"/>
    <linearGradient id="New_Gradient_Swatch6" data-name="New Gradient Swatch" x1="49.03" y1="18.65" x2="60.03" y2="18.65" xlink:href="#New_Gradient_Swatch"/>
    <linearGradient id="New_Gradient_Swatch7" data-name="New Gradient Swatch" x1="42.64" y1="26.47" x2="54.63" y2="26.47" xlink:href="#New_Gradient_Swatch"/>
    <linearGradient id="New_Gradient_Swatch8" data-name="New Gradient Swatch" x1="49.37" y1="38.87" x2="59.52" y2="38.87" xlink:href="#New_Gradient_Swatch"/>
    <linearGradient id="New_Gradient_Swatch9" data-name="New Gradient Swatch" x1="61.14" y1="29.63" x2="68.16" y2="29.63" xlink:href="#New_Gradient_Swatch"/>
    <linearGradient id="New_Gradient_Swatch10" data-name="New Gradient Swatch" x1="48.57" y1="24.9" x2="53.16" y2="24.9" xlink:href="#New_Gradient_Swatch"/>
    <linearGradient id="New_Gradient_Swatch11" data-name="New Gradient Swatch" x1="49.24" y1="27.94" x2="52.77" y2="27.94" xlink:href="#New_Gradient_Swatch"/>
    <linearGradient id="New_Gradient_Swatch12" data-name="New Gradient Swatch" x1="45.26" y1="23.58" x2="48.94" y2="23.58" xlink:href="#New_Gradient_Swatch"/>
    <linearGradient id="New_Gradient_Swatch13" data-name="New Gradient Swatch" x1="62.95" y1="29.74" x2="66.51" y2="29.74" xlink:href="#New_Gradient_Swatch"/>
    <linearGradient id="New_Gradient_Swatch14" data-name="New Gradient Swatch" x1="49.73" y1="21.27" x2="53.89" y2="21.27" xlink:href="#New_Gradient_Swatch"/>
    <linearGradient id="New_Gradient_Swatch15" data-name="New Gradient Swatch" x1="65.66" y1="28.38" x2="66.77" y2="28.38" xlink:href="#New_Gradient_Swatch"/>
  </defs>
  <rect class="st4" x=".02" y="-.09" width="113.35" height="56.87"/>
  <g>
    <path class="st23" d="M80.82,30.36c.07.59.14,1.15.2,1.74h-9.79c.07-.12.1-.23.17-.31.79-.98,1.6-1.96,2.4-2.94,1-1.24,2-2.47,3.01-3.7.77-.94,1.55-1.88,2.32-2.81.02-.03.04-.05.05-.08h-6.24c.11-.54.21-1.1.32-1.67h9.78c-2.57,3.31-5.18,6.54-7.86,9.77h5.64Z"/>
    <path class="st21" d="M89.92,24.2c-.05.42-.12.85-.18,1.28-.16,1.07-.33,2.14-.49,3.22-.13.85-.25,1.7-.38,2.56-.03.17-.08.34-.07.5.01.25-.1.28-.31.27-.6-.01-1.21,0-1.86,0,.05-.39.1-.75.15-1.14-.22.19-.43.38-.65.54-.95.72-2.01.91-3.15.58-.86-.25-1.45-1.06-1.5-1.95-.04-.79.12-1.56.23-2.33.16-1.06.33-2.12.49-3.19.02-.11.04-.21.06-.32.04-.2.15-.29.36-.28.55.01,1.1.01,1.66,0,.23-.01.31.07.27.29-.09.6-.19,1.19-.28,1.79-.18,1.17-.36,2.34-.52,3.52-.08.53.23.89.75,1,.94.18,1.66-.24,2.26-.89.13-.14.15-.41.18-.62.25-1.61.49-3.22.73-4.83.03-.18.12-.25.28-.26h1.79c.2,0,.2.13.18.26Z"/>
    <path class="st19" d="M105,27.73c.94,1.46,1.88,2.9,2.84,4.38-.84,0-1.63.01-2.41-.01-.09,0-.21-.15-.27-.25-.53-.8-1.05-1.61-1.57-2.42-.03-.05-.07-.11-.13-.2-.09.11-.18.21-.27.31-.74.81-1.48,1.62-2.22,2.43-.06.06-.16.13-.25.14-.64.01-1.29,0-2,0,.15-.18.27-.33.39-.46,1.06-1.17,2.12-2.34,3.18-3.5.3-.33.31-.33.08-.71-.64-1.08-1.28-2.16-1.91-3.24-.04-.07-.08-.15-.14-.26h.95c.25,0,.51.03.76-.01.5-.07.77.14,1,.57.32.61.71,1.19,1.09,1.8.6-.64,1.2-1.23,1.75-1.87.3-.35.6-.55,1.09-.5.41.05.83.01,1.25.01.08,0,.16.01.28.02-1.18,1.28-2.33,2.52-3.49,3.77Z"/>
    <path class="st16" d="M65.5,25.33c-.52.56-1.02,1.14-1.57,1.66-.7.67-1.44,1.29-2.18,1.92-.05.05-.15.06-.22.05-.43-.07-.86-.15-1.3-.16.38.11.77.23,1.22.37-.44.29-.84.57-1.24.82-.06.04-.19.02-.26-.02-.72-.32-1.44-.65-2.15-.98-.16-.07-.21-.16-.2-.35.03-.47,0-.94.02-1.4.01-.12.06-.27.15-.35.3-.29.63-.56.96-.85.16.19.3.35.47.56.28-.4.56-.78.82-1.17.13-.2.22-.44.36-.64.22-.31.32-.31.55,0,.13.18.24.36.4.6.2-.38.39-.72.56-1.07.02-.04-.04-.13-.07-.19-.04-.08-.1-.15-.16-.23.05-.06.09-.1.15-.17.76.53,1.11,1.37,1.65,2.13.22-.35.41-.67.63-1.02-.21-.14-.4-.27-.59-.39.56-.01.92.41,1.4.6-.21-.3-.4-.61-.62-.9-.06-.08-.17-.15-.27-.18-1.02-.29-1.83-.94-2.69-1.51-.1-.07-.22-.16-.33-.17-.13-.02-.32,0-.39.08-.7.83-1.57,1.45-2.45,2.06-.14.1-.24.24-.35.36.02.03.04.05.06.08.18-.11.35-.21.6-.35-.05.13-.08.2-.13.33.34-.21.64-.39.95-.58.19.33.37.65.54.98.03.05.03.14,0,.18-.21.3-.42.6-.64.9-.13-.21-.24-.39-.35-.58-.39.34-.77.67-1.19,1.04-.01-.14-.02-.22-.02-.3-.01-.59-.01-1.19,0-1.79,0-.09.04-.21.1-.26.77-.54,1.41-1.22,2.07-1.89.02-.02.04-.05.07-.07.69-.7,1.04-.72,1.85-.16.57.39,1.15.74,1.74,1.09.2.12.44.15.64.25.16.07.31.18.42.31.32.39.61.81.91,1.22.02.03.04.07.08.14Z"/>
    <path class="st22" d="M109.1,34.04c-.1,0-.21.01-.32,0-1.94-.03-3.88-.07-5.82-.09-1.93-.02-3.85-.04-5.78-.03-1.9.02-3.81.06-5.72.1-1.51.04-3.03.08-4.54.14-1.52.07-3.04.16-4.56.25-1.15.06-2.29.13-3.44.21-1.14.09-2.28.19-3.43.3-1.1.09-2.19.2-3.29.31-.5.05-.99.13-1.49.19-.12.01-.24.01-.41.02.1-.43.2-.83.3-1.23.02-.04.1-.09.15-.1.65-.06,1.31-.11,1.96-.15.95-.07,1.9-.14,2.85-.19.75-.05,1.51-.09,2.27-.12,1.64-.07,3.28-.14,4.92-.19,1.47-.05,2.94-.08,4.42-.08,3.04-.01,6.08,0,9.12.01,1.23,0,2.47.02,3.7.06,1.69.05,3.39.12,5.08.21,1.26.07,2.52.2,3.78.3.09.01.17.02.25.08Z"/>
    <path class="st20" d="M96.61,24.14c-.09.52-.18,1.04-.27,1.57-1.12-.21-2.18-.02-3.19.48-.26.13-.38.3-.42.59-.21,1.57-.43,3.14-.66,4.71q-.08.56-.64.56h-1.67c.04-.36.07-.69.12-1.02.15-.97.3-1.94.45-2.91.16-1.1.33-2.19.5-3.29.04-.23.06-.47.12-.7.01-.07.12-.18.19-.18.64-.01,1.28-.01,1.96-.01-.06.41-.12.77-.18,1.17.25-.2.46-.39.69-.56.61-.43,1.29-.67,2.05-.61.26.02.51,0,.77,0,.15,0,.2.07.18.2Z"/>
    <path class="st5" d="M51.83,33.38c-.55.15-1.06.31-1.57.41-.79.16-1.59.31-2.38.39-1,.11-1.9-.22-2.68-.83-.91-.7-1.48-1.61-1.62-2.75-.1-.81.04-1.59.4-2.33.15-.31.32-.61.5-.95,1.04,1.29,2.14,2.43,3.49,3.32,0,.02-.02.05-.04.07-.43-.22-.88-.41-1.29-.65-.42-.25-.81-.56-1.18-.82.19.36.75.86,1.48,1.23.59.3,1.2.53,1.8.83-.35-.04-.71-.07-1.06-.13-.35-.05-.7-.13-1.04-.21-.35-.09-.71-.18-1.05-.31-.32-.13-.62-.32-.87-.45.38.58,1.1,1.11,2.69,1.96-.43,0-.83.02-1.23,0-.4-.03-.79-.11-1.18-.14.37.21.77.26,1.18.3,1.07.09,2.12-.12,3.16-.31.09-.02.2-.01.28.03.7.41,1.4.83,2.1,1.25.03.01.05.04.11.09Z"/>
    <path class="st8" d="M48.22,16.52c-1.22-.29-2.42-.15-3.61.22-.15.04-.22.13-.23.28-.05.71-.15,1.43-.14,2.13.02,1.56.85,2.61,2.32,3.12.32.11.64.12.96-.04.39-.18.8-.33,1.19-.51.07-.03.15-.12.16-.19.05-.24.08-.49.11-.73.16-1.31.41-2.61.81-3.89-.53-.13-1.05-.27-1.57-.39ZM48.68,19.34c-.02.13-.08.16-.21.13-.32-.06-.65-.12-1.02-.18-.05.41-.1.81-.16,1.23-.29-.04-.57-.07-.87-.11.04-.41.09-.79.13-1.2-.31-.02-.61-.06-.91-.07-.21-.01-.34-.06-.29-.31.04-.24.04-.49.06-.79.42.04.83.08,1.26.12.03-.3.07-.59.1-.88,0-.17.09-.2.24-.17.22.04.45.07.7.1-.03.35-.06.69-.1,1.06.4.06.8.11,1.23.16-.05.33-.11.62-.16.91Z"/>
    <path class="st24" d="M99.53,24.22c-.1.59-.18,1.17-.28,1.76-.14.94-.29,1.89-.44,2.83-.17,1.06-.34,2.11-.52,3.16,0,.06-.08.14-.13.14-.7,0-1.4,0-2.09-.01-.02,0-.03-.02-.06-.04.12-.77.25-1.56.37-2.34.15-.95.29-1.89.44-2.84.14-.88.28-1.77.42-2.66.03-.19.13-.29.34-.28.57.01,1.13.01,1.69,0,.22-.01.29.07.26.28Z"/>
    <path class="st26" d="M57.01,23.43c-.52-.32-1.05-.62-1.57-.93-.14-.09-.23-.07-.34,0-.54.35-1.07.69-1.62,1.02-.15.1-.21.21-.21.39,0,1.26,0,2.51,0,3.76v.29c.34-.23.64-.43.93-.65.13-.1.22-.11.36-.02.3.2.61.37.91.56.17.1.35.19.55.3v-.91c.18.03.35.05.52.07,0,.16.01.28-.01.41-.05.42,0,.78.49.91.03.01.06.03.1.06.02-.04.03-.06.03-.08,0-1.65.01-3.3,0-4.95,0-.08-.08-.19-.15-.23ZM54.2,25.92c0-.4-.02-.81.01-1.21,0-.1.17-.19.27-.28.08.09.22.18.23.27.02.41,0,.83,0,1.26-.18,0-.34-.03-.52-.04ZM56.39,25.97h-.37c0-.45-.01-.88,0-1.3,0-.08.15-.15.23-.22.04.08.12.16.13.24,0,.42,0,.83,0,1.28Z"/>
    <path class="st9" d="M66.97,32.19c-.03.38-.22.75-.51,1.07-.53.58-1.22.88-1.97,1.04-1.09.24-2.19.21-3.29.08-.95-.12-1.88-.29-2.79-.58-.03-.01-.07-.03-.15-.05.08-.06.13-.1.18-.13.73-.5,1.46-.99,2.19-1.49.13-.09.24-.1.39-.04,1.32.46,2.68.6,4.06.47.64-.06,1.26-.24,1.89-.37Z"/>
    <path class="st27" d="M59.33,30.31c-1,.48-1.95.95-2.89,1.39-.45.21-.9.4-1.36.57-.11.04-.27.02-.37-.04-.4-.24-.78-.51-1.15-.75.76-.5,1.53-1,2.29-1.49-.02-.03-.03-.06-.05-.08-.4.23-.81.48-1.22.7-.37.21-.74.41-1.13.58-.13.06-.3.04-.46.06,0-.03-.01-.06-.02-.09,1.05-.58,2.1-1.15,3.2-1.76-.58-.31-1.1-.61-1.64-.89-.08-.04-.23-.04-.32,0-.86.4-1.71.82-2.57,1.22-.16.08-.35.11-.53.16-.01-.02-.03-.05-.04-.08.05-.04.1-.09.16-.12,1-.57,2-1.14,3.02-1.69.1-.06.29,0,.41.06.86.42,1.71.85,2.57,1.27.67.33,1.35.63,2.1.98Z"/>
    <path class="st1" d="M56.18,22.7c-.26-.16-.5-.3-.73-.45-.14-.1-.24-.1-.39-.02-.31.18-.63.33-1.01.53.31-2.89.62-5.73.94-8.58h.06c.38,2.83.75,5.66,1.13,8.52Z"/>
    <path class="st17" d="M55.68,35.84c-.5.38-.96.77-1.47,1.1-.43.28-.91.48-1.37.72-.19.1-.36.08-.51-.1-.41-.47-.82-.95-1.25-1.45.96-.33,1.87-.59,2.74-.94.39-.16.66-.12.96.11.14.1.29.18.44.27.13.08.27.17.46.29Z"/>
    <path class="st15" d="M54.15,17.17c-.09.65-.18,1.29-.26,1.93-1.05-.34-2.08-.68-3.15-1.03.15-.36.27-.7.42-1.02.04-.07.19-.11.29-.11.73.05,1.47.12,2.21.18.15.01.3.03.49.05Z"/>
    <path class="st3" d="M59.56,18.52c-1.16.21-2.31.41-3.5.63-.08-.51-.17-1.06-.26-1.66.74.1,1.42.19,2.11.3.36.06.71.14,1.03-.12.14-.11.25-.05.31.11.11.25.21.5.31.74Z"/>
    <path class="st18" d="M100.3,20.59c-.05.3-.09.55-.13.81,0,.02-.02.05-.02.07.05.55-.27.7-.74.79-.48.1-.96.27-1.47.41.04-.28.07-.53.11-.79.03-.15.09-.3.09-.44-.01-.23.11-.31.31-.36.6-.15,1.2-.32,1.85-.49Z"/>
    <path class="st10" d="M48.72,34.73c-.28.04-.57.08-.86.11-1.2.15-2.37.07-3.52-.33-.79-.27-1.46-.72-1.87-1.47-.33-.6-.4-1.24-.26-1.91.11.34.18.68.32.99.61,1.34,1.73,2.02,3.11,2.34.89.21,1.79.28,2.71.22.12,0,.24,0,.37.05Z"/>
    <g>
      <path class="st6" d="M68.54,20.25c-.19-.99-.85-1.57-1.78-1.87-1.22-.4-2.49-.43-3.76-.41-.1.01-.2.02-.3.03v-.06c.15-.03.3-.05.54-.09-.25-.26-.42-.5-.65-.66-.84-.59-1.74-.6-2.67-.24-.18.07-.21.16-.15.33.12.38.22.78.34,1.17.04.15.02.22-.15.23-.36.03-.71.04-1.06.1-.88.16-1.75.34-2.62.52-.05.01-.13.08-.13.11.04.29.09.57.14.88.29-.1.52-.21.77-.27.95-.26,1.9-.52,2.87-.76.27-.07.53-.05.79.17.57.49,1.63.27,1.74-.71,0-.05,0-.1.02-.19.12.23-.03.72-.24.92-.48.43-1.14.46-1.62.03-.16-.14-.29-.19-.49-.15-.31.06-.62.11-.98.17.28.4.57.68.95.86.51.23,1.05.25,1.6.21.59-.04,1.07-.29,1.44-.75.27-.34.39-.72.39-1.15h-.86s0-.06-.01-.1c.28,0,.56,0,.84-.01.8-.03,1.59.06,2.37.25,1.13.28,1.71,1.01,1.72,2.17,0,.68-.18,1.32-.44,1.94-.47,1.09-1.16,2.03-1.91,2.94-1.17,1.43-2.49,2.69-4.01,3.75-1.83,1.28-3.8,2.3-5.85,3.16-1.57.67-3.17,1.26-4.82,1.68-.37.1-.76.17-1.13.27-.34.09-.39.22-.21.51l.18.36c-.06.03-.1.04-.14.06-.04.01-.08.02-.12.04-1.56.39-3.13.49-4.71.15-.89-.19-1.7-.55-2.39-1.14-.78-.67-1.23-1.53-1.38-2.54-.1-.63-.07-.98.1-1.36-.05.65.07,1.22.4,1.74.33.52.8.88,1.38,1.18-.08-.14-.15-.23-.2-.33-.45-.9-.44-1.84-.23-2.78.23-1.05.8-1.94,1.4-2.8.18-.27.37-.52.56-.79-.13-.13-.25-.25-.38-.37s-.26-.23-.4-.34c-1.22,1.41-2.26,2.96-2.82,4.79-.31,1.03-.24,2.04.28,3,.59,1.08,1.51,1.75,2.65,2.14,1.64.56,3.32.51,5.01.21.01,0,.02-.02.02-.02-.02-.05-.04-.1-.07-.15.31-.06.59-.09.87-.16,1.18-.33,2.38-.61,3.54-1.01,2.06-.71,4.08-1.53,5.95-2.65,2.92-1.74,5.41-3.99,7.55-6.63.86-1.07,1.61-2.23,2.05-3.55.22-.66.35-1.33.22-2.03ZM61.18,19.04c-.3,0-.54-.25-.55-.55,0-.33.27-.63.58-.63.29,0,.55.3.55.62-.01.3-.27.56-.58.56ZM60.4,17.84c.29-.41.81-.57,1.32-.4.49.16.75.47.75.96-.32-.89-1.04-1.25-2.07-.56Z"/>
      <path class="st30" d="M52.87,33.1c-.28.14-.5.15-.78-.03-1.27-.83-2.52-1.68-3.68-2.65-1.68-1.4-3.31-2.87-4.69-4.57-.92-1.14-1.78-2.33-2.31-3.73-.29-.75-.48-1.52-.38-2.33.12-1,.73-1.69,1.6-2.12.41-.21.87-.32,1.31-.46.07-.03.15,0,.22,0,0,.04.01.06.01.07.01.44-.14.67-.62.81-.93.29-1.19,1.24-1.09,2.02.21,1.59.97,2.97,1.8,4.3,1.2,1.93,2.65,3.65,4.26,5.23,1.27,1.24,2.68,2.3,4.14,3.31.07.05.13.1.21.16Z"/>
      <path class="st12" d="M68.14,34.67c-.4.78-1.09,1.27-1.9,1.58-1.21.47-2.49.55-3.78.48-2.5-.14-4.84-.87-7.09-1.92-.04-.03-.09-.06-.13-.08-.05-.02-.09-.03-.17-.07.35-.16.66-.3.98-.45.04-.02.08-.02.11-.05.49-.36.95-.25,1.46-.02,1.16.53,2.36.91,3.61,1.12,1.49.24,2.98.3,4.42-.24.82-.31,1.41-.87,1.54-1.77.06-.35-.01-.73-.01-1.09,0-.07.01-.17.05-.21.18-.18.37-.35.58-.54.73,1.03.92,2.12.33,3.26Z"/>
      <path class="st31" d="M60.03,18.52c-.22.06-.34.06-.43-.2-.58-1.55-1.28-3.02-2.48-4.22-1.31-1.3-2.91-1.12-4.16.02-1.15,1.05-1.85,2.38-2.33,3.83-.36,1.11-.64,2.26-.89,3.41-.18.81-.27,1.64-.4,2.46-.06.36-.13.72-.19,1.08-.04,0-.08,0-.12-.02.05-1.12.09-2.24.16-3.36.07-1.31.32-2.6.72-3.86.41-1.28.94-2.51,1.81-3.56.71-.85,1.53-1.52,2.68-1.67.99-.13,1.86.14,2.62.77,1.07.89,1.72,2.08,2.27,3.31.26.58.46,1.19.69,1.78.02.07.03.14.05.23Z"/>
      <path class="st0" d="M54.63,32.46c-.43.16-.82.31-1.21.44-.09.03-.23-.02-.33-.07-1.15-.64-2.22-1.4-3.24-2.23-1.29-1.04-2.39-2.25-3.45-3.51-.87-1.04-1.66-2.14-2.35-3.32-.63-1.1-1.16-2.25-1.39-3.52-.01-.06-.01-.12-.02-.22.19.43.33.83.52,1.2.71,1.35,1.57,2.6,2.51,3.79,1.33,1.7,2.81,3.24,4.53,4.55,1.35,1.03,2.77,1.98,4.27,2.79.04.02.07.05.16.1Z"/>
      <path class="st13" d="M59.52,36.7c-.14.34-.27.66-.41.98-.39.85-.88,1.63-1.51,2.32-.69.76-1.52,1.3-2.56,1.44-.95.14-1.82-.12-2.59-.68-1.46-1.08-2.38-2.56-3.08-4.24.38-.09.74-.17,1.11-.26.32.84.72,1.63,1.29,2.32.54.65,1.15,1.21,1.95,1.51,1.13.43,2.15.23,3.07-.48.94-.73,1.51-1.73,1.95-2.82.03-.07.06-.15.1-.23.22.04.42.09.68.14Z"/>
      <path class="st2" d="M68.13,30.38c-.14.82-.7,1.27-1.44,1.53-.7.24-1.43.31-2.16.31-1.11.01-2.21-.04-3.27-.41-.03-.01-.07-.03-.12-.05.32-.27.61-.41,1.06-.34,1.21.18,2.44.22,3.63-.13.86-.25,1.46-.77,1.58-1.7.07-.57-.07-1.11-.32-1.63-.14-.31-.31-.61-.47-.91.62.5,1.05,1.12,1.32,1.86.18.48.27.97.19,1.47Z"/>
      <path class="st11" d="M53.16,26.9c-.5-.15-.94-.26-1.35-.42-.37-.15-.7-.1-1.05.03-.58.22-1.18.41-1.77.61-.12.04-.26.06-.42.04.09-.11.17-.22.26-.33.53-.61,1.07-1.21,1.6-1.81.51-.58.64-1.3.75-2.02.02-.12.05-.24.12-.37.23,1.57,1.18,2.82,1.86,4.27Z"/>
      <path class="st7" d="M52.59,26.93c-.37-.11-.74-.24-1.11-.36-.08-.02-.19-.04-.27-.01-.59.2-1.18.42-1.76.63-.06.02-.15.08-.15.12-.02.49-.23,1.04.31,1.4.29.2.59.36.88.54.38.25.65-.08.96-.18t.02-.02c.23-.04.3-.2.3-.4,0-.28,0-.55.03-.82.01-.08.11-.19.18-.2.15-.04.17.08.17.21v.89c.15-.08.24-.13.34-.17.22-.09.3-.24.28-.48-.02-.29-.01-.59,0-.89,0-.14-.03-.21-.18-.26ZM50.67,28.78c-.38-.01-.46-.09-.46-.41v-.48c0-.16.08-.29.23-.27.09.02.21.16.22.25.03.3.01.59.01.91Z"/>
      <path class="st28" d="M48.94,22.16c-.03.28-.04.5-.08.73-.02.08-.08.19-.16.24-.92.62-1.84,1.23-2.8,1.88-.19-.24-.41-.51-.64-.8,1.22-.72,2.36-1.5,3.68-2.05Z"/>
      <path class="st14" d="M66.17,30.15c-.32.22-.66.44-1.01.56-.72.23-1.47.24-2.21.2,1.12-.62,2.12-1.38,2.98-2.35.3.25.49.56.57.92.06.28-.12.52-.33.67Z"/>
      <path class="st25" d="M53.89,20.06c-.02.26-.02.5-.07.73-.01.07-.14.15-.23.18-.79.3-1.59.57-2.38.88-.48.18-.94.42-1.41.63-.16-.46-.07-.77.34-.94,1.19-.5,2.4-.98,3.59-1.47.04-.01.09-.01.16-.01Z"/>
      <path class="st29" d="M66.75,29.28s-.01.05-.02.05c-.23-.34-.48-.7-.72-1.06-.13-.21-.25-.43-.35-.65,0-.04.16-.13.25-.19,0,0,.03.02.04.03.29.2.95,1.29.8,1.82Z"/>
    </g>
  </g>
</svg>