<?xml version="1.0" encoding="UTF-8"?>
<svg xmlns="http://www.w3.org/2000/svg" version="1.1" xmlns:xlink="http://www.w3.org/1999/xlink" viewBox="0 0 500 500">
  <!-- Generator: Adobe Illustrator 30.1.0, SVG Export Plug-In . SVG Version: 2.1.1 Build 136)  -->
  <defs>
    <style>
      .st0 {
        fill: #fff;
      }

      .st1 {
        fill: #fffefe;
      }

      .st2 {
        fill: url(#Gradiente_sem_nome_33);
      }

      .st3 {
        fill: url(#linear-gradient);
      }
    </style>
    <linearGradient id="linear-gradient" x1="188.65" y1="195.41" x2="76.03" y2="308.04" gradientUnits="userSpaceOnUse">
      <stop offset="0" stop-color="#ed297b"/>
      <stop offset=".6" stop-color="#ad2a84"/>
      <stop offset="1" stop-color="#812b8c"/>
    </linearGradient>
    <linearGradient id="Gradiente_sem_nome_33" data-name="Gradiente sem nome 33" x1="834.76" y1="143.65" x2="189.66" y2="880.05" gradientTransform="translate(50.98 166.92) scale(.16)" gradientUnits="userSpaceOnUse">
      <stop offset="0" stop-color="#465eae"/>
      <stop offset=".29" stop-color="#5075bd"/>
      <stop offset=".39" stop-color="#5485c6"/>
      <stop offset=".83" stop-color="#4aa4de"/>
    </linearGradient>
  </defs>
  <g id="BACKGROUND">
    <rect class="st0" width="500" height="500"/>
  </g>
  <g id="OBJECTS">
    <path class="st3" d="M187.04,265.97c4.05.47,7.59,1.36,10.64,2.47v-61.62c0-11.29-9.15-20.44-20.44-20.44h-55.8c2.24,9.4,2.14,22.59-5.57,39.58-4,8.82-5.58,15.98-5.85,21.68l17.13-15.74c.78-.72,2-.66,2.7.12.72.79.67,1.99-.12,2.71l-19.61,18.01c.26,2.56.79,4.73,1.42,6.5l25.95-23.84c.78-.71,2-.66,2.7.12.72.79.67,1.99-.12,2.71l-26.84,24.66c1.03,1.73,1.96,2.67,2.23,2.93.64.48.85.71,1.29,1.39.03.04.08.09.12.15l28.44-26.13c.79-.72,2-.67,2.71.11.71.78.66,1.99-.11,2.7l-28.12,25.83c1.35.92,3.17,1.92,5.54,2.72l22.24-20.43c.78-.72,2-.67,2.7.12.72.78.67,1.99-.12,2.7l-20.37,18.72c.67.12,1.36.21,2.09.3,3.95.41,6.81,3.96,6.39,7.91-.38,3.69-3.51,6.43-7.14,6.43-.26,0-.52,0-.78-.04-15.26-1.62-22.74-9.5-24.86-12.14-3.77-3.67-18.62-21.17-2.75-56.16,4.74-10.45,5.88-18.74,5.45-25.06l-19.61,18.03c-.37.34-.83.5-1.3.5-.52,0-1.04-.2-1.41-.61-.72-.79-.66-2,.12-2.71l21.58-19.83c-.31-1.47-.7-2.78-1.13-3.94h-3.08l-25.48,23.42c-.37.34-.83.5-1.3.5-.52,0-1.04-.21-1.41-.61-.72-.79-.66-2,.12-2.71l22.43-20.59s-8.01.03-8.59.09c-3.19.27-6.19,1.28-8.79,2.85-2.33,1.42-4.35,3.27-5.95,5.47-1.55,2.12-2.7,4.56-3.34,7.18-.38,1.55-.59,3.18-.59,4.85v8.82c2.54,1.57,6.33,3.26,11.52,3.98,3.94.55,6.69,4.18,6.14,8.11-.5,3.6-3.58,6.21-7.12,6.21-.33,0-.66-.02-1-.07-3.6-.5-6.77-1.33-9.54-2.34v61.63c0,11.29,9.15,20.44,20.44,20.44h55.86c-2.25-9.4-2.14-22.59,5.56-39.58,12.51-27.56,1.43-38.87.38-39.85-.64-.48-.84-.71-1.28-1.39-.54-.67-5-5.87-15.61-6.85-3.96-.37-6.87-3.88-6.5-7.83.36-3.96,3.88-6.87,7.83-6.5,15.71,1.46,23.38,9.52,25.53,12.21,3.77,3.68,18.62,21.17,2.74,56.16-7.32,16.12-6.06,27.16-3.68,33.63,0,0,16.75-.03,17.36-.09,3.26-.29,6.29-1.34,8.92-2.98,2.19-1.36,4.09-3.12,5.62-5.17,1.86-2.49,3.17-5.43,3.72-8.62.21-1.16.32-2.36.32-3.58v-4.53l-24.34,22.37c-.37.34-.83.51-1.29.51-.53,0-1.04-.21-1.42-.62-.72-.79-.66-2,.11-2.71l26.36-24.22c-1.52-.88-3.45-1.76-5.79-2.47l-20.58,18.91c-.36.34-.83.5-1.29.5-.52,0-1.04-.2-1.41-.61-.72-.79-.67-2,.12-2.71l18.62-17.11c-.44-.07-.88-.13-1.35-.19-3.94-.46-6.77-4.03-6.32-7.97.46-3.95,4.02-6.78,7.97-6.32Z"/>
    <g id="Objeto_generativo">
      <polygon class="st1" points="50.98 333 50.98 166.92 217.15 166.92 217.15 333.08 50.98 333.08 50.98 333"/>
      <path class="st2" d="M197.64,207.04l-.09,61.33c-3.18-1.04-6.35-1.81-9.6-2.34-2.42-.39-4.69.07-6.51,1.69-1.68,1.49-2.64,3.75-2.35,6.06.49,3.89,3.7,6.62,7.78,6.44l-18.79,17.4c-.78.72-.59,1.96-.02,2.6.68.77,1.85.8,2.68.04l20.58-18.96c2.07.68,3.93,1.46,5.88,2.57l-5.92,5.5-20.57,18.97c-.82.76-.69,2.01-.06,2.67.86.89,1.95.68,2.87-.17l23.94-22.02c.15,1.3.06,2.53.11,3.86.42,11.28-8.59,20.92-19.83,20.92h-15.98c-4.43-10.28-.87-23.84,3.5-33.42,5.4-11.85,8.71-24.02,6.69-37.16-1.9-12.36-9.77-22.89-21.36-27.89-4.48-1.93-9.2-3.14-14.08-3.47-2.7-.18-5.12,1.44-6.33,3.58-1.39,2.43-1.13,5.29.37,7.53s3.6,2.93,6.05,3.15c9.42.84,17.91,6.95,20.47,16.34,1.22,4.46,1.47,9.05.81,13.75-.84,5.97-2.59,11.69-5.18,17.15-3.74,7.9-6.29,16.22-7.05,25-.28,5.56-.16,9.86,1.13,15.44l-56.35-.02c-5.58,0-10.78-2.25-14.54-6.43-2.83-3.15-5.31-7.31-5.32-11.77l-.15-63.8c3.68,1.01,6.96,2.09,10.57,2.17s6.61-2.93,7.09-6.35c.39-3.99-2.48-7.38-6.45-7.89s-7.55-1.66-11.19-3.37l.03-10.46c.03-9.83,9.17-19.22,19.26-19.26l7.31-.03c.13,0,.2.11.24.15.07.06.04.07-.1.2l-21.82,20.11c-.81.74-.75,1.89-.13,2.57.69.77,1.9.8,2.75.03l25.16-23.04,3.15.03c.56,1.26.91,2.54,1.24,3.94l-21.51,19.82c-.84.77-.9,1.85-.26,2.63s1.81.98,2.69.18l19.69-18.07c.86,9.01-2.73,19.22-6.25,27.14-4.79,10.77-7.58,22.48-5.9,34.25s9.2,22.77,20.45,28.16c4.49,2.15,9.4,3.48,14.39,3.86,3.33.26,6.45-2.17,7.27-5.35,1.06-4.16-1.56-8.03-5.67-8.72-.92-.15-1.71-.14-2.71-.51l20.34-18.74c.85-.78.87-1.99.22-2.7-.82-.9-1.95-.79-2.85.04l-22.1,20.31c-1.95-.76-3.71-1.59-5.51-2.85l27.82-25.49c.95-.87,1.1-1.98.34-2.81-.84-.92-2-.77-2.91.06l-28.17,25.83c-1.49-1.27-2.64-2.87-3.71-4.65l19.9-18.26,7.01-6.46c.8-.74.75-1.94.12-2.6-.72-.77-1.85-.88-2.67-.12l-17.07,15.7-8.98,8.18c-.84-2.19-1.22-4.34-1.45-6.64l19.56-17.85c.8-.73.83-1.87.18-2.62-.56-.65-1.76-.98-2.56-.25l-16.92,15.46c-.09.08-.17.15-.21.17s-.11-.13-.11-.25c.13-3.75.87-7.28,1.9-10.83s2.3-6.47,3.69-9.77c1.64-3.91,3.09-7.66,4.27-11.65,2.65-9.22,3.77-18.97,1.5-28.6h56.13c11.42.01,20.16,9.37,20.14,20.65Z"/>
    </g>
  </g>
</svg>